<?xml version="1.0" encoding="UTF-8" standalone="no"?>
<!DOCTYPE svg PUBLIC "-//W3C//DTD SVG 1.1//EN" "http://www.w3.org/Graphics/SVG/1.1/DTD/svg11.dtd">
<svg width="100%" height="100%" viewBox="0 0 1024 1024" version="1.1" xmlns="http://www.w3.org/2000/svg" xmlns:xlink="http://www.w3.org/1999/xlink" xml:space="preserve" xmlns:serif="http://www.serif.com/" style="fill-rule:evenodd;clip-rule:evenodd;stroke-linecap:round;stroke-linejoin:round;stroke-miterlimit:1.5;">
    <g id="Ewe" transform="matrix(1.28154,-6.74974e-33,6.70657e-33,1.28979,-144.147,-162.218)">
        <g id="Body" transform="matrix(1.33389,0,0,1.30718,-157.293,-170.151)">
            <path d="M408.501,333.717C418.067,294.019 456.596,263.157 501.76,263.157C546.923,263.157 585.452,294.019 595.018,333.717C631.593,316.549 679.414,327.848 707.573,363.65C735.732,399.452 735.956,449.236 711.309,481.57C747.352,499.86 768.454,544.813 758.404,589.457C748.355,634.101 710.105,665.318 669.805,665.941C678.174,705.915 656.668,750.671 615.977,770.539C575.286,790.408 527.366,779.551 501.76,747.993C476.153,779.551 428.233,790.408 387.542,770.539C346.851,750.671 325.345,705.915 333.714,665.941C293.414,665.318 255.164,634.101 245.115,589.457C235.065,544.813 256.167,499.86 292.21,481.57C267.563,449.236 267.787,399.452 295.946,363.65C324.105,327.848 371.926,316.549 408.501,333.717Z" style="fill:rgb(235,235,235);stroke:black;stroke-width:7.36px;"/>
        </g>
        <g id="head" transform="matrix(1,0,0,1,2.65424,56.6793)">
            <g transform="matrix(1.06719,0,0,1.01266,-95.6329,-138.238)">
                <path d="M568.568,388.639C647.694,388.639 688.935,463.73 711.935,586.139C732.026,693.067 696.534,784.067 568.568,783.639C418.994,783.14 414.328,694.539 425.201,586.139C437.24,466.117 495.972,388.639 568.568,388.639Z"/>
            </g>
            <g transform="matrix(0.968858,-0.247618,0.247618,0.968858,-71.0133,91.8029)">
                <ellipse cx="326.964" cy="348.099" rx="103.897" ry="26.35" style="stroke:black;stroke-width:9.74px;"/>
            </g>
            <g transform="matrix(-0.968858,-0.247618,-0.247618,0.968858,1094.89,91.8029)">
                <ellipse cx="326.964" cy="348.099" rx="103.897" ry="26.35" style="stroke:black;stroke-width:9.74px;"/>
            </g>
            <g id="Right-Eye" serif:id="Right Eye" transform="matrix(1,0,0,1,79.1597,0)">
                <ellipse cx="463.291" cy="401.71" rx="30.451" ry="53.611" style="fill:white;"/>
                <clipPath id="_clip1">
                    <ellipse cx="463.291" cy="401.71" rx="30.451" ry="53.611"/>
                </clipPath>
                <g clip-path="url(#_clip1)">
                    <g transform="matrix(1.0449,0,0,1.0052,50.2505,-31.9783)">
                        <ellipse cx="394.95" cy="440.398" rx="14.355" ry="14.922"/>
                    </g>
                </g>
            </g>
            <ellipse id="Left-Eye" serif:id="Left Eye" cx="463.291" cy="401.71" rx="30.451" ry="53.611" style="fill:white;"/>
            <clipPath id="_clip2">
                <ellipse id="Left-Eye1" serif:id="Left Eye" cx="463.291" cy="401.71" rx="30.451" ry="53.611"/>
            </clipPath>
            <g clip-path="url(#_clip2)">
                <g transform="matrix(1.0449,0,0,1.0052,50.2505,-31.9783)">
                    <ellipse cx="394.95" cy="440.398" rx="14.355" ry="14.922"/>
                </g>
            </g>
        </g>
        <g transform="matrix(0.780312,4.08355e-33,-4.05744e-33,0.775323,112.48,125.772)">
            <path d="M512,646.617C1178.08,807.58 1100.97,-85.636 512,62C-217.432,244.845 -129.526,1395.13 875.248,828.487C68.662,1093.82 -132.337,454.962 515.402,151.764C911.367,-33.582 1149.8,613.421 512,646.617Z" style="fill:rgb(49,133,41);stroke:white;stroke-width:12.5px;"/>
        </g>
    </g>
</svg>
